<svg width="34" height="34" viewBox="0 0 34 34" fill="none" xmlns="http://www.w3.org/2000/svg">
<path d="M8 10V9C7.44772 9 7 9.44772 7 10H8ZM26 10H27C27 9.44772 26.5523 9 26 9V10ZM8 11H26V9H8V11ZM25 10V22H27V10H25ZM24 23H10V25H24V23ZM9 22V10H7V22H9ZM10 23C9.44772 23 9 22.5523 9 22H7C7 23.6569 8.34315 25 10 25V23ZM25 22C25 22.5523 24.5523 23 24 23V25C25.6569 25 27 23.6569 27 22H25Z" fill="white"/>
<path d="M8 10L17 19L26 10" stroke="white" stroke-width="2" stroke-linecap="round" stroke-linejoin="round"/>
</svg>
